/* XPM */
static char *_2d78b1f8e3d4034b5e6dcfb28d9d1e6V702L51gkuXDF1tx[] = {
/* columns rows colors chars-per-pixel */
"60 60 8 1 ",
"  c #393939",
". c #297300",
"X c #7B5218",
"o c #189439",
"O c #62CD08",
"+ c #67BF40",
"@ c #C09038",
"# c #B0F850",
/* pixels */
"++++++++++++++++++++++++++++++++++++++++++++++++++++++++++++",
"+++++++++++++++++++ ++++++     +++++     +++++++++++++++++++",
"+++++++++++++++++++ ++++++     +++++     +++++++++#++++++#++",
"+++++##++++++++++                +         ++++++++##++##+++",
"+++++##++++++++++                +         ++++++++##++##+++",
"##+##++++++++++  ooooo  oo.....     ooooooo  +++++++++++++++",
"##+##++++++++++  ooooo  oo.....     ooooooo  +++++++++++++++",
"+++++++++++++  ooooOOOooooo..    .ooOOOOOOOoo  +++++++++++++",
"++++++++++     ooOOOOOOOOOo  ..oooOOOOOOOoooooo ++++++++++++",
"++++++++++     ooOOOOOOOOOo  ..oooOOOOOOOoooooo   ++++++++++",
"++++++++    oooOOOOOOOooooooooooooooOOOOOOOOOooo  ++++++++++",
"++++++++    oooOOOOOOOooooooooooooooOOOOOOOOOooo  ++++++++++",
"++++++++  oooOOOOOOOOOOOOOOooOOOOOOOOOOOOOOOOOOooo  ++++++++",
"++++++++  oooOOOOOOOOOOOOOOooOOOOOOOOOOOOOOOOOOooo  ++++++++",
"++++++  ooooOOOOOOOOOOOOOOOOOOOOOOOOOOOOOOOooooooo  ++++++++",
"++++++  ooooOOOOOOOOOOOOOOOOOOOOOOOOOOOOOOOooooooo  ++++++++",
"++++++  ..oooooOOOOOOOOOOOOOOOOOOOOOOOOOOOOOOOOOoo    ++++++",
"++ +++  ..oooooOOOOOOOOOOOOOOOOOOOOOOOOOOOOOOOOOoo    ++++++",
"++ +++  .... ooooooOOOOOOOOOOOOoo OOOOoooOOOOOOooo     +++++",
"++ +++      .ooOOOOOOOOOOOOOOoooo   oooooooOOOOOoo    ++++++",
"++ +++      .ooOOOOOOOOOOOOOOoooo   oooooooOOOOOoo    ++++++",
"+++++ ....   ooooooooooooooOOOOoo ....  .ooooooooo    ++++##",
"+++++ ....   ooooooooooooooOOOOoo ....  .ooooooooo    #+++##",
"+++   ......          ooooOOOoo  .....     OOOOo  .... +++##",
"+++   ......          ooooOOOoo  .....     OOOOo  .... ##+++",
"+++++              oooooooooo                   ......   +++",
"+++++              oooooooooo                   ......   +++",
"++++++  .......  ..ooo..ooo       oooooo oooooo ..     +++++",
"++++++  .......  ..ooo..ooo       oooooo oooooo ..     +++++",
"++#++ ..oooo...  ooo    ..oooooooooooooooooOOOOo      ++++++",
"++#++ ooOOOOoOOooooo..  oooooOOOOoOOoooooOOOOOOo    ++++++++",
"##+++ ooOOOOoOOooooo..  oooooOOOOoOOoooooOOOOOOo    ++++++++",
"##+   ooOOOOOoooooo.    oooOOOOOOOoooooo.ooOOooo      ++++++",
"+++   ooOOOOOoooooo.    oooOOOOOOOoooooo.ooOOooo      ++++++",
"+++++ ooooooooooo     ....oooOOOOooo  .. oooooo oooo   +++++",
"+++++ ooooooooooo     ....oooOOOOooo  .. oooooo oooo   +++++",
"++++++  oo..     .......   ooooooo  ....        oo..  ++++++",
"++++++  oo..     .......   ooooooo  ....        oo..  ++++++",
"++++++++    .  ...........     oo ......   ..  o..  ++++++++",
"++++++++    .  ...........     oo ......   ..  o..  ++++++++",
"++++++++++                .      .....   .......  ++++++++++",
"++++++++++                .      .....   .......  ++++++++++",
"++++++++++++                                    ++++++++++++",
"+++++++++++++  ++                            +++++++++++++++",
"+++++++++++++  ++                            +++++++++++++++",
"+++++++++++++  ++++                   +++    +++++++++++++++",
"+++++++++++++  ++++                   +++    +++++++++++++++",
"+++++++++++++++++++ ++++  XXX  XX ++  +++++  +++++++++++++++",
"+++##++++++++++++++ ++++  XXX  XX ++  +++++  ++++++++++++#++",
"+++##+++++++++++++++++++  @XXXXXX +++++++++++++++++++++++#++",
"+++##++++#++++++++++++++  @XXXXXX ++  ++++++++++++++++++++##",
"##+++++##+++++++++++++++  @@@  XX ++  +++  ++#+++++##+++++++",
"##+++++##+++++++++++++++  @@@  XX ++  +++  ++#+++++##+++++++",
"++++++++++++++++++++++++  X@@     +++++  +++++##++#+++++++++",
"++++++++++++++++++++++++++ XXXX   +++++  +++++##++#+++++++++",
"++++++++++++++++++++++++++ XXXX  +++++++++++++++++++++++++++",
"++++++++++++++++++++++++++++++++++++++++++++++++++++++++++++",
"++++++++++++++++++++++++++++++++++++++++++++++++++++++++++++",
"++++++++++++++++++++++++++#++++++#++++++++++++++++++++++++++",
"++++++++++++++++++++++++++#++++++#++++++++++++++++++++++++++"
};
