/* XPM */
static char *_16b6285a10e4bb6d32f57932cea8224miechX6OgHZuUtdL[] = {
/* columns rows colors chars-per-pixel */
"47 47 5 1 ",
"  c None",
". c #44292A",
"X c #7F3D3F",
"o c #ED474C",
"O c #F2C1C3",
/* pixels */
"             .....................             ",
"             .....................             ",
"             .....................             ",
"          ...XXXXoooooooooooooXXXX...          ",
"          ...XXXXoooooooooooooXXXX...          ",
"          ...XXXXoooooooooooooXXXX...          ",
"       ...XXXoooooooooooooooooooooXXX...       ",
"       ...XXXoooooooooooooooooooooXXX...       ",
"       ...XXXoooooooooooooooooooooXXX...       ",
"       ...XXXoooo.............ooooXXX...       ",
"       ...XXXoooo.............ooooXXX...       ",
"       ...XXXoooo.............ooooXXX...       ",
"       ...XXXoooo.............ooooXXX...       ",
"       ...XXX....OOOOOOOOOOOOO....XXX...       ",
"       ...XXX....OOOOOOOOOOOOO....XXX...       ",
"       ...XXX....OOOOOOOOOOOOO....XXX...       ",
"   .........................................   ",
"   .........................................   ",
"   .........................................   ",
"...OOOO.................oooooooooo......OOOO...",
"...OOOO.................oooooooooo......OOOO...",
"...OOOO.................oooooooooo......OOOO...",
"...OOOOOOO...OOOO...OOOOOOO...OOOO...OOOOOOO...",
"...OOOOOOO...OOOO...OOOOOOO...OOOO...OOOOOOO...",
"...OOOOOOO...OOOO...OOOOOOO...OOOO...OOOOOOO...",
"   ....oooOOOOOOO...OOOOOOO...OOOOOOOooo....   ",
"   ....oooOOOOOOO...OOOOOOO...OOOOOOOooo....   ",
"   ....oooOOOOOOO...OOOOOOO...OOOOOOOooo....   ",
"   ..........OOOOOOOOOOOOOOOOOOOOO......       ",
"   ..........OOOOOOOOOOOOOOOOOOOOO......       ",
"   ..........OOOOOOOOOOOOOOOOOOOOO......       ",
"   ..................................          ",
"   ..................................          ",
"   ..................................          ",
"   ....OOO...oooooooOOOOooo...XXXXXXX...       ",
"   ....OOO...oooooooOOOOooo...XXXXXXX...       ",
"   ....OOO...oooooooOOOOooo...XXXXXXX...       ",
"   ....OOO...oooooooOOOOooo...XXXXXXX...       ",
"       .............OOOOooo...OOOOOOO...       ",
"       .............OOOOooo...OOOOOOO...       ",
"       .............OOOOooo...OOOOOOO...       ",
"          ...ooooooo.................          ",
"          ...ooooooo.................          ",
"          ...ooooooo.................          ",
"             ...........                       ",
"             ...........                       ",
"             ...........                       "
};
