/* XPM */
static char *c610c2aaf01d4db9a8aacd0541ba59d5GRUW3bp5SC1u41IW[] = {
/* columns rows colors chars-per-pixel */
"47 47 5 1 ",
"  c None",
". c #44292A",
"X c #7F3D3F",
"o c #ED474C",
"O c #F2C1C3",
/* pixels */
"                .......................        ",
"                .......................        ",
"                .......................        ",
"            ....oooooooooooooooooooXXXX....    ",
"            ....oooooooooooooooooooXXXX....    ",
"            ....oooooooooooooooooooXXXX....    ",
"        ....OOOOoooooooooooooooooooooooXXXX....",
"        ....OOOOoooooooooooooooooooooooXXXX....",
"        ....OOOOoooooooooooooooooooooooXXXX....",
"    ........OOOOoooooooooooooooooooXXXXXXXX....",
"    ........OOOOoooooooooooooooooooXXXXXXXX....",
"    ........OOOOoooooooooooooooooooXXXXXXXX....",
"    ........OOOOoooooooooooooooooooXXXXXXXX....",
"....OOOO....oooooooooooooooooooXXXXXXXXXXXX....",
"....OOOO....oooooooooooooooooooXXXXXXXXXXXX....",
"....OOOO....oooooooooooooooooooXXXXXXXXXXXX....",
"....OOOO.......................................",
"....OOOO.......................................",
"....OOOO.......................................",
"    ........OOOOOOOOOOOO.......................",
"    ........OOOOOOOOOOOO.......................",
"    ........OOOOOOOOOOOO.......................",
"        ....OOOO....OOOO...OOOO................",
"        ....OOOO....OOOO...OOOO................",
"        ....OOOO....OOOO...OOOO................",
"        ....OOOO....OOOOOOOOOOO................",
"        ....OOOO....OOOOOOOOOOO................",
"        ....OOOO....OOOOOOOOOOO................",
"            ....OOOOOOOOOOOoooooooo........    ",
"            ....OOOOOOOOOOOoooooooo........    ",
"            ....OOOOOOOOOOOoooooooo........    ",
"            ...........................oooo....",
"            ...........................oooo....",
"            ...........................oooo....",
"        ........oooo....XXXXXXX....oooo........",
"        ........oooo....XXXXXXX....oooo........",
"        ........oooo....XXXXXXX....oooo........",
"        ........oooo....XXXXXXX....oooo........",
"        ....XXXX........OOOOOOO................",
"        ....XXXX........OOOOOOO................",
"        ....XXXX........OOOOOOO................",
"            ....XXXX...........oooooooo....    ",
"            ....XXXX...........oooooooo....    ",
"            ....XXXX...........oooooooo....    ",
"                ........       ........        ",
"                ........       ........        ",
"                ........       ........        "
};
