/* XPM */
static char *_2cc62dac0d443698a9de46be439cf67waJzPZqpFEsYQqWP[] = {
/* columns rows colors chars-per-pixel */
"47 47 5 1 ",
"  c None",
". c #44292A",
"X c #7F3D3F",
"o c #ED474C",
"O c #F2C1C3",
/* pixels */
"                .......................        ",
"                .......................        ",
"                .......................        ",
"            ....oooooooooooooooooooXXXX....    ",
"            ....oooooooooooooooooooXXXX....    ",
"            ....oooooooooooooooooooXXXX....    ",
"        ....OOOOoooooooooooooooooooooooXXXX....",
"        ....OOOOoooooooooooooooooooooooXXXX....",
"        ....OOOOoooooooooooooooooooooooXXXX....",
"    ........OOOOoooooooooooooooooooXXXXXXXX....",
"    ........OOOOoooooooooooooooooooXXXXXXXX....",
"    ........OOOOoooooooooooooooooooXXXXXXXX....",
"....OOOO....oooooooooooooooooooXXXXXXXXXXXX....",
"....OOOO....oooooooooooooooooooXXXXXXXXXXXX....",
"....OOOO....oooooooooooooooooooXXXXXXXXXXXX....",
"....OOOO.......................................",
"....OOOO.......................................",
"....OOOO.......................................",
"    ........OOOOOOOOOOOO.......................",
"    ........OOOOOOOOOOOO.......................",
"    ........OOOOOOOOOOOO.......................",
"        ....OOOO....OOOO...OOOO................",
"        ....OOOO....OOOO...OOOO................",
"        ....OOOO....OOOO...OOOO................",
"        ....OOOO....OOOOOOOOOOO................",
"        ....OOOO....OOOOOOOOOOO................",
"            ....OOOOOOOOOOOoooooooo........    ",
"            ....OOOOOOOOOOOoooooooo........    ",
"            ....OOOOOOOOOOOoooooooo........    ",
"            ...........................oooo....",
"            ...........................oooo....",
"            ...........................oooo....",
"            ....oooooooo...XXXXXXXX....oooo....",
"            ....oooooooo...XXXXXXXX....oooo....",
"            ....oooooooo...XXXXXXXX....oooo....",
"                ....XXXX...OOOOOOOO....oooo....",
"                ....XXXX...OOOOOOOO....oooo....",
"                ....XXXX...OOOOOOOO....oooo....",
"                ...........................    ",
"                ...........................    ",
"                ...........................    ",
"            ....oooooooo.......XXXX....        ",
"            ....oooooooo.......XXXX....        ",
"            ....oooooooo.......XXXX....        ",
"            .......................            ",
"            .......................            ",
"            .......................            "
};
