/* XPM */
static char *b3cf9417ba7e414c99533916040a811ck9gXfsYfve3mEzUt[] = {
/* columns rows colors chars-per-pixel */
"47 47 5 1 ",
"  c None",
". c #44292A",
"X c #7F3D3F",
"o c #ED474C",
"O c #F2C1C3",
/* pixels */
"                .......................        ",
"                .......................        ",
"                .......................        ",
"            ....oooooooooooooooooooXXXX....    ",
"            ....oooooooooooooooooooXXXX....    ",
"            ....oooooooooooooooooooXXXX....    ",
"        ....OOOOoooooooooooooooooooooooXXXX....",
"        ....OOOOoooooooooooooooooooooooXXXX....",
"        ....OOOOoooooooooooooooooooooooXXXX....",
"    ........OOOOoooooooooooooooooooXXXXXXXX....",
"    ........OOOOoooooooooooooooooooXXXXXXXX....",
"    ........OOOOoooooooooooooooooooXXXXXXXX....",
"    ........OOOOoooooooooooooooooooXXXXXXXX....",
"....OOOO....oooooooooooooooooooXXXXXXXXXXXX....",
"....OOOO....oooooooooooooooooooXXXXXXXXXXXX....",
"....OOOO....oooooooooooooooooooXXXXXXXXXXXX....",
"....OOOO.......................................",
"....OOOO.......................................",
"....OOOO.......................................",
"    ........OOOOOOOOOOOO.......................",
"    ........OOOOOOOOOOOO.......................",
"    ........OOOOOOOOOOOO.......................",
"        ....OOOO....OOOO...OOOO................",
"        ....OOOO....OOOO...OOOO................",
"        ....OOOO....OOOO...OOOO................",
"        ....OOOO....OOOOOOOOOOO................",
"        ....OOOO....OOOOOOOOOOO................",
"        ....OOOO....OOOOOOOOOOO................",
"            ....OOOOOOOOOOOoooooooo........    ",
"            ....OOOOOOOOOOOoooooooo........    ",
"            ....OOOOOOOOOOOoooooooo........    ",
"            ...........................oooo....",
"            ...........................oooo....",
"            ...........................oooo....",
"        ........ooooooooooo....OOOOOOOO........",
"        ........ooooooooooo....OOOOOOOO........",
"        ........ooooooooooo....OOOOOOOO........",
"        ........ooooooooooo....OOOOOOOO........",
"        ....oooo....XXXXXXX....OOOOOOOO........",
"        ....oooo....XXXXXXX....OOOOOOOO........",
"        ....oooo....XXXXXXX....OOOOOOOO........",
"            ....oooo.......................    ",
"            ....oooo.......................    ",
"            ....oooo.......................    ",
"                ........       ........        ",
"                ........       ........        ",
"                ........       ........        "
};
