/* XPM */
static char *_9ae84cf4aa24c07bfdef9ece2a9e35atEZS1sKa3L7Q9cMQ[] = {
/* columns rows colors chars-per-pixel */
"47 47 5 1 ",
"  c None",
". c #44292A",
"X c #7F3D3F",
"o c #ED474C",
"O c #F2C1C3",
/* pixels */
"        .......................                ",
"        .......................                ",
"        .......................                ",
"    ....XXXXooooooooooooooooooo....            ",
"    ....XXXXooooooooooooooooooo....            ",
"    ....XXXXooooooooooooooooooo....            ",
"....XXXXoooooooooooooooooooooooOOOO....        ",
"....XXXXoooooooooooooooooooooooOOOO....        ",
"....XXXXoooooooooooooooooooooooOOOO....        ",
"....XXXXXXXXoooooooooooooooooooOOOO........    ",
"....XXXXXXXXoooooooooooooooooooOOOO........    ",
"....XXXXXXXXoooooooooooooooooooOOOO........    ",
"....XXXXXXXXoooooooooooooooooooOOOO........    ",
"....XXXXXXXXXXXXooooooooooooooooooo....OOOO....",
"....XXXXXXXXXXXXooooooooooooooooooo....OOOO....",
"....XXXXXXXXXXXXooooooooooooooooooo....OOOO....",
".......................................OOOO....",
".......................................OOOO....",
".......................................OOOO....",
"........................OOOOOOOOOOO........    ",
"........................OOOOOOOOOOO........    ",
"........................OOOOOOOOOOO........    ",
"................OOOO....OOO....OOOO....        ",
"................OOOO....OOO....OOOO....        ",
"................OOOO....OOO....OOOO....        ",
"................OOOOOOOOOOO....OOOO....        ",
"................OOOOOOOOOOO....OOOO....        ",
"................OOOOOOOOOOO....OOOO....        ",
"    ........ooooooooOOOOOOOOOOO....            ",
"    ........ooooooooOOOOOOOOOOO....            ",
"    ........ooooooooOOOOOOOOOOO....            ",
"....oooo...........................            ",
"....oooo...........................            ",
"....oooo...........................            ",
"........OOOOOOOO....ooooooooooo........        ",
"........OOOOOOOO....ooooooooooo........        ",
"........OOOOOOOO....ooooooooooo........        ",
"........OOOOOOOO....ooooooooooo........        ",
"........OOOOOOOO....XXXXXXX....oooo....        ",
"........OOOOOOOO....XXXXXXX....oooo....        ",
"........OOOOOOOO....XXXXXXX....oooo....        ",
"    .......................oooo....            ",
"    .......................oooo....            ",
"    .......................oooo....            ",
"        ........        .......                ",
"        ........        .......                ",
"        ........        .......                "
};
