/* XPM */
static char *_1add014228d4142f90796e26be88d03zJWdkMPvgYhHi3xQ[] = {
/* columns rows colors chars-per-pixel */
"47 47 5 1 ",
"  c None",
". c #44292A",
"X c #7F3D3F",
"o c #ED474C",
"O c #F2C1C3",
/* pixels */
"        .......................                ",
"        .......................                ",
"        .......................                ",
"    ....XXXXooooooooooooooooooo....            ",
"    ....XXXXooooooooooooooooooo....            ",
"    ....XXXXooooooooooooooooooo....            ",
"....XXXXoooooooooooooooooooooooOOOO....        ",
"....XXXXoooooooooooooooooooooooOOOO....        ",
"....XXXXoooooooooooooooooooooooOOOO....        ",
"....XXXXXXXXoooooooooooooooooooOOOO........    ",
"....XXXXXXXXoooooooooooooooooooOOOO........    ",
"....XXXXXXXXoooooooooooooooooooOOOO........    ",
"....XXXXXXXXoooooooooooooooooooOOOO........    ",
"....XXXXXXXXXXXXooooooooooooooooooo....OOOO....",
"....XXXXXXXXXXXXooooooooooooooooooo....OOOO....",
"....XXXXXXXXXXXXooooooooooooooooooo....OOOO....",
".......................................OOOO....",
".......................................OOOO....",
".......................................OOOO....",
"........................OOOOOOO............    ",
"........................OOOOOOO............    ",
"........................OOOOOOO............    ",
"................OOOO....OOO....OOOO....        ",
"................OOOO....OOO....OOOO....        ",
"................OOOO....OOO....OOOO....        ",
"................OOOOOOOOOOO....OOOO....        ",
"................OOOOOOOOOOO....OOOO....        ",
"................OOOOOOOOOOO....OOOO....        ",
"    ........ooooooooOOOOOOOOOOO....            ",
"    ........ooooooooOOOOOOOOOOO....            ",
"    ........ooooooooOOOOOOOOOOO....            ",
"....oooo...........................            ",
"....oooo...........................            ",
"....oooo...........................            ",
"........oooo....XXXXXXXX...oooo........        ",
"........oooo....XXXXXXXX...oooo........        ",
"........oooo....XXXXXXXX...oooo........        ",
"........oooo....XXXXXXXX...oooo........        ",
"................OOOOOOOO.......XXXX....        ",
"................OOOOOOOO.......XXXX....        ",
"................OOOOOOOO.......XXXX....        ",
"    ....oooooooo...........XXXX....            ",
"    ....oooooooo...........XXXX....            ",
"    ....oooooooo...........XXXX....            ",
"        ........        .......                ",
"        ........        .......                ",
"        ........        .......                "
};
