/* XPM */
static char *_960e65477414325d3a504db9d2c865bCagpV6O0YZwh8evf[] = {
/* columns rows colors chars-per-pixel */
"47 47 5 1 ",
"  c None",
". c #44292A",
"X c #7F3D3F",
"o c #ED474C",
"O c #F2C1C3",
/* pixels */
"        .......................                ",
"        .......................                ",
"        .......................                ",
"    ....XXXXooooooooooooooooooo....            ",
"    ....XXXXooooooooooooooooooo....            ",
"    ....XXXXooooooooooooooooooo....            ",
"....XXXXoooooooooooooooooooooooOOOO....        ",
"....XXXXoooooooooooooooooooooooOOOO....        ",
"....XXXXoooooooooooooooooooooooOOOO....        ",
"....XXXXXXXXoooooooooooooooooooOOOO........    ",
"....XXXXXXXXoooooooooooooooooooOOOO........    ",
"....XXXXXXXXoooooooooooooooooooOOOO........    ",
"....XXXXXXXXXXXXooooooooooooooooooo....OOOO....",
"....XXXXXXXXXXXXooooooooooooooooooo....OOOO....",
"....XXXXXXXXXXXXooooooooooooooooooo....OOOO....",
".......................................OOOO....",
".......................................OOOO....",
".......................................OOOO....",
"........................OOOOOOO............    ",
"........................OOOOOOO............    ",
"........................OOOOOOO............    ",
"................OOOO....OOO....OOOO....        ",
"................OOOO....OOO....OOOO....        ",
"................OOOO....OOO....OOOO....        ",
"................OOOOOOOOOOO....OOOO....        ",
"................OOOOOOOOOOO....OOOO....        ",
"    ........ooooooooOOOOOOOOOOO....            ",
"    ........ooooooooOOOOOOOOOOO....            ",
"    ........ooooooooOOOOOOOOOOO....            ",
"....oooo...........................            ",
"....oooo...........................            ",
"....oooo...........................            ",
"....oooo....XXXXXXXX....ooooooo....            ",
"....oooo....XXXXXXXX....ooooooo....            ",
"....oooo....XXXXXXXX....ooooooo....            ",
"....oooo....OOOOOOOO....XXX....                ",
"....oooo....OOOOOOOO....XXX....                ",
"....oooo....OOOOOOOO....XXX....                ",
"    ...........................                ",
"    ...........................                ",
"    ...........................                ",
"        ....XXXX........ooooooo....            ",
"        ....XXXX........ooooooo....            ",
"        ....XXXX........ooooooo....            ",
"            .......................            ",
"            .......................            ",
"            .......................            "
};
