/* XPM */
static char *_fecdc87bd5e4271e90989c039a2fdefv8fSdOh0vRczNlBr[] = {
/* columns rows colors chars-per-pixel */
"47 47 5 1 ",
"  c None",
". c #44292A",
"X c #7F3D3F",
"o c #ED474C",
"O c #F2C1C3",
/* pixels */
"             .....................             ",
"             .....................             ",
"             .....................             ",
"          ...XXXXoooooooooooooXXXX...          ",
"          ...XXXXoooooooooooooXXXX...          ",
"          ...XXXXoooooooooooooXXXX...          ",
"       ...XXXoooooooooooooooooooooXXX...       ",
"       ...XXXoooooooooooooooooooooXXX...       ",
"       ...XXXoooooooooooooooooooooXXX...       ",
"       ...XXXoooooooooooooooooooooXXX...       ",
"       ...XXXoooooooooooooooooooooXXX...       ",
"       ...XXXoooooooooooooooooooooXXX...       ",
"       ...XXXoooooooooooooooooooooXXX...       ",
"       ...XXXXXXXoooooooooooooXXXXXXX...       ",
"       ...XXXXXXXoooooooooooooXXXXXXX...       ",
"       ...XXXXXXXoooooooooooooXXXXXXX...       ",
"   .......XXXXXXXXXXXXXXXXXXXXXXXXXXX.......   ",
"   .......XXXXXXXXXXXXXXXXXXXXXXXXXXX.......   ",
"   .......XXXXXXXXXXXXXXXXXXXXXXXXXXX.......   ",
"...OOOO......XXXXXXXXXXXXXXXXXXXXX......OOOO...",
"...OOOO......XXXXXXXXXXXXXXXXXXXXX......OOOO...",
"...OOOO......XXXXXXXXXXXXXXXXXXXXX......OOOO...",
"...OOOO.................................OOOO...",
"...OOOO.................................OOOO...",
"...OOOO.................................OOOO...",
"   .........................................   ",
"   .........................................   ",
"   .........................................   ",
"   .....................................       ",
"   .....................................       ",
"   .....................................       ",
"   ....OOOXXX.....................XXX.......   ",
"   ....OOOXXX.....................XXX.......   ",
"   ....OOOXXX.....................XXX.......   ",
"   ..........XXXXoooooooooooooXXXX...OOOOOOO...",
"   ..........XXXXoooooooooooooXXXX...OOOOOOO...",
"   ..........XXXXoooooooooooooXXXX...OOOOOOO...",
"   ..........XXXXoooooooooooooXXXX...OOOOOOO...",
"       .............oooooooooo.......OOOOOOO...",
"       .............oooooooooo.......OOOOOOO...",
"       .............oooooooooo.......OOOOOOO...",
"          ...ooooooo........................   ",
"          ...ooooooo........................   ",
"          ...ooooooo........................   ",
"             ...........                       ",
"             ...........                       ",
"             ...........                       "
};
