/* XPM */
static char *_67009a2edb34ddd9c6a3eb604816422BzthVaXJ1wzZRVPU[] = {
/* columns rows colors chars-per-pixel */
"47 47 5 1 ",
"  c None",
". c #44292A",
"X c #7F3D3F",
"o c #ED474C",
"O c #F2C1C3",
/* pixels */
"             .....................             ",
"             .....................             ",
"             .....................             ",
"          ...XXXXoooooooooooooXXXX...          ",
"          ...XXXXoooooooooooooXXXX...          ",
"          ...XXXXoooooooooooooXXXX...          ",
"       ...XXXoooooooooooooooooooooXXX...       ",
"       ...XXXoooooooooooooooooooooXXX...       ",
"       ...XXXoooooooooooooooooooooXXX...       ",
"       ...XXXoooooooooooooooooooooXXX...       ",
"       ...XXXoooooooooooooooooooooXXX...       ",
"       ...XXXoooooooooooooooooooooXXX...       ",
"       ...XXXoooooooooooooooooooooXXX...       ",
"       ...XXXXXXXoooooooooooooXXXXXXX...       ",
"       ...XXXXXXXoooooooooooooXXXXXXX...       ",
"       ...XXXXXXXoooooooooooooXXXXXXX...       ",
"   .......XXXXXXXXXXXXXXXXXXXXXXXXXXX.......   ",
"   .......XXXXXXXXXXXXXXXXXXXXXXXXXXX.......   ",
"   .......XXXXXXXXXXXXXXXXXXXXXXXXXXX.......   ",
"...OOOO......XXXXXXXXXXXXXXXXXXXXX......OOOO...",
"...OOOO......XXXXXXXXXXXXXXXXXXXXX......OOOO...",
"...OOOO......XXXXXXXXXXXXXXXXXXXXX......OOOO...",
"...OOOO.................................OOOO...",
"...OOOO.................................OOOO...",
"...OOOO.................................OOOO...",
"   .........................................   ",
"   .........................................   ",
"   .........................................   ",
"       .....................................   ",
"       .....................................   ",
"       .....................................   ",
"   .......XXX.....................XXXOOO....   ",
"   .......XXX.....................XXXOOO....   ",
"   .......XXX.....................XXXOOO....   ",
"...OOOOOOO...XXXXoooooooooooooXXXX..........   ",
"...OOOOOOO...XXXXoooooooooooooXXXX..........   ",
"...OOOOOOO...XXXXoooooooooooooXXXX..........   ",
"...OOOOOOO...XXXXoooooooooooooXXXX..........   ",
"...OOOOOOO.......oooooooooo.............       ",
"...OOOOOOO.......oooooooooo.............       ",
"...OOOOOOO.......oooooooooo.............       ",
"   ........................ooooooo...          ",
"   ........................ooooooo...          ",
"   ........................ooooooo...          ",
"                        ..........             ",
"                        ..........             ",
"                        ..........             "
};
