/* XPM */
static char *_58225bb1f1a44f7c8f75cb1c5bf19e4TfHK7U4eBNbgZSa0[] = {
/* columns rows colors chars-per-pixel */
"47 47 5 1 ",
"  c None",
". c #44292A",
"X c #7F3D3F",
"o c #ED474C",
"O c #F2C1C3",
/* pixels */
"             .....................             ",
"             .....................             ",
"             .....................             ",
"          ...XXXXoooooooooooooXXXX...          ",
"          ...XXXXoooooooooooooXXXX...          ",
"          ...XXXXoooooooooooooXXXX...          ",
"       ...XXXoooooooooooooooooooooXXX...       ",
"       ...XXXoooooooooooooooooooooXXX...       ",
"       ...XXXoooooooooooooooooooooXXX...       ",
"       ...XXXoooooooooooooooooooooXXX...       ",
"       ...XXXoooooooooooooooooooooXXX...       ",
"       ...XXXoooooooooooooooooooooXXX...       ",
"       ...XXXXXXXoooooooooooooXXXXXXX...       ",
"       ...XXXXXXXoooooooooooooXXXXXXX...       ",
"       ...XXXXXXXoooooooooooooXXXXXXX...       ",
"   .......XXXXXXXXXXXXXXXXXXXXXXXXXXX.......   ",
"   .......XXXXXXXXXXXXXXXXXXXXXXXXXXX.......   ",
"   .......XXXXXXXXXXXXXXXXXXXXXXXXXXX.......   ",
"...OOOO......XXXXXXXXXXXXXXXXXXXXX......OOOO...",
"...OOOO......XXXXXXXXXXXXXXXXXXXXX......OOOO...",
"...OOOO......XXXXXXXXXXXXXXXXXXXXX......OOOO...",
"...OOOO.................................OOOO...",
"...OOOO.................................OOOO...",
"...OOOO.................................OOOO...",
"   .........................................   ",
"   .........................................   ",
"       .................................       ",
"       .................................       ",
"       .................................       ",
"   .......XXX.....................XXX.......   ",
"   .......XXX.....................XXX.......   ",
"   .......XXX.....................XXX.......   ",
"...XXXXXXX...XXXXoooooooooooooXXXX...XXXXXXX...",
"...XXXXXXX...XXXXoooooooooooooXXXX...XXXXXXX...",
"...XXXXXXX...XXXXoooooooooooooXXXX...XXXXXXX...",
"...OOOOOOO.......ooooooooooooo.......OOOOOOO...",
"...OOOOOOO.......ooooooooooooo.......OOOOOOO...",
"...OOOOOOO.......ooooooooooooo.......OOOOOOO...",
"   .........................................   ",
"   .........................................   ",
"   .........................................   ",
"       ...ooooooo.............ooooooo...       ",
"       ...ooooooo.............ooooooo...       ",
"       ...ooooooo.............ooooooo...       ",
"          ..........       ..........          ",
"          ..........       ..........          ",
"          ..........       ..........          "
};
