/* XPM */
static char *_0cce0637c90454787775afadbf74782EDekNtYM7S0u5FDK[] = {
/* columns rows colors chars-per-pixel */
"60 60 7 1 ",
"  c None",
". c #754C60",
"X c #90625D",
"o c #AA7959",
"O c #C49A6C",
"+ c #DCB98A",
"@ c #E8CFA6",
/* pixels */
"........                  ........                   .......",
"........                  ........                   .......",
"........                  ........                   .......",
"........                  ........                   .......",
"OOOOOOOO...        .......OOOOOOOO....           ....OOOOOOO",
"OOOOOOOO...        .......OOOOOOOO....           ....OOOOOOO",
"OOOOOOOO...        .......OOOOOOOO....           ....OOOOOOO",
"OOOOOOOO...        .......OOOOOOOO....           ....OOOOOOO",
"OOOOOOOO...........OOOOOOOXXXXXXXX....           ....OOOOOOO",
"OOOOOOOO...........OOOOOOOXXXXXXXX....           ....OOOOOOO",
"OOOOOOOO...........OOOOOOOXXXXXXXX....           ....OOOOOOO",
"OOOOOOOO...OOOOOOOOXXXXXXXXXXXXXXX....           ....OOOOOOO",
"OOOOOOOO...OOOOOOOOXXXXXXXXXXXXXXX....           ....OOOOOOO",
"OOOOOOOO...OOOOOOOOXXXXXXXXXXXXXXX....           ....OOOOOOO",
"OOOOOOOO...OOOOOOOOXXXXXXXXXXXXXXX....           ....OOOOOOO",
"++++++++...XXXXXXXXXXXXXXXooooXXXX....           ....+++++++",
"++++++++...XXXXXXXXXXXXXXXooooXXXX....           ....+++++++",
"++++++++...XXXXXXXXXXXXXXXooooXXXX....           ....+++++++",
"++++++++...XXXXXXXXXXXXXXXooooXXXX....           ....+++++++",
"oooooooo...XXXXXXXXXXXXXXXooooXXXX....           ....ooooooo",
"oooooooo...XXXXXXXXXXXXXXXooooXXXX....           ....ooooooo",
"oooooooo...XXXXXXXXXXXXXXXooooXXXX....           ....ooooooo",
"oooooooo...XXXXXXXXXXXXXXXooooXXXX....           ....ooooooo",
"oooooooo...XXXXooooXXXXXXXooooXXXX....           ....ooooooo",
"oooooooo...XXXXooooXXXXXXXooooXXXX....           ....ooooooo",
"oooooooo...XXXXooooXXXXXXXooooXXXX....           ....ooooooo",
"XXXXXXXX...XXXXooooXXXXXXXoooo@@@@....           ....XXXXXXX",
"XXXXXXXX...XXXXooooXXXXXXXoooo@@@@....           ....XXXXXXX",
"XXXXXXXX...XXXXooooXXXXXXXoooo@@@@....           ....XXXXXXX",
"XXXXXXXX...XXXXooooXXXXXXXoooo@@@@....           ....XXXXXXX",
"oooooooo...XXXXooooXXXXXXX@@@@XXXX....           ....ooooooo",
"oooooooo...XXXXooooXXXXXXX@@@@XXXX....           ....ooooooo",
"oooooooo...XXXXooooXXXXXXX@@@@XXXX....           ....ooooooo",
"oooooooo...XXXXooooXXXXXXX@@@@XXXX....           ....ooooooo",
"oooooooo...XXXXooooXXXXXXXooooXXXX....           ....ooooooo",
"oooooooo...XXXXooooXXXXXXXooooXXXX....           ....ooooooo",
"oooooooo...XXXXooooXXXXXXXooooXXXX....           ....ooooooo",
"oooooooo...XXXXooooXXXXXXXooooXXXX....           ....ooooooo",
"oooooooo...XXXXooooXXXXXXXooooXXXX....           ....ooooooo",
"oooooooo...XXXXooooXXXXXXXooooXXXX....           ....ooooooo",
"oooooooo...XXXXooooXXXXXXXooooXXXX....           ....ooooooo",
"XXXXXXXX...XXXXooooXXXXXXXXXXXXXXX....           ....XXXXXXX",
"XXXXXXXX...XXXXooooXXXXXXXXXXXXXXX....           ....XXXXXXX",
"XXXXXXXX...XXXXooooXXXXXXXXXXXXXXX....           ....XXXXXXX",
"XXXXXXXX...XXXXooooXXXXXXXXXXXXXXX....           ....XXXXXXX",
"oooooooo...XXXXooooXXXXXXXXXXXXXXX....           ....ooooooo",
"oooooooo...XXXXooooXXXXXXXXXXXXXXX....           ....ooooooo",
"oooooooo...XXXXooooXXXXXXXXXXXXXXX....           ....ooooooo",
"oooooooo...XXXXooooXXXXXXXXXXXXXXX....           ....ooooooo",
"oooooooo...XXXXXXXXXXXXXXX........               ....ooooooo",
"oooooooo...XXXXXXXXXXXXXXX........               ....ooooooo",
"oooooooo...XXXXXXXXXXXXXXX........               ....ooooooo",
"oooooooo...XXXXXXXXXXXXXXX........               ....ooooooo",
"oooooooo...XXXXXXXX.......                       ....ooooooo",
"oooooooo...XXXXXXXX.......                       ....ooooooo",
"oooooooo...XXXXXXXX.......                       ....ooooooo",
"...................                              ...........",
"...................                              ...........",
"...................                              ...........",
"...................                              ..........."
};
