/* XPM */
static char *_2e88aff09b44662ee3ed205e047b090KEB77CnhZlcXPTec[] = {
/* columns rows colors chars-per-pixel */
"60 60 7 1 ",
"  c None",
". c #754C60",
"X c #90625D",
"o c #AA7959",
"O c #C49A6C",
"+ c #DCB98A",
"@ c #E8CFA6",
/* pixels */
"........                                             .......",
"........                                             .......",
"........                                             .......",
"........                                             .......",
"OOOOOOOO...                                      ....OOOOOOO",
"OOOOOOOO...                                      ....OOOOOOO",
"OOOOOOOO...                                      ....OOOOOOO",
"OOOOOOOO...                                      ....OOOOOOO",
"OOOOOOOO...    ..............................    ....OOOOOOO",
"OOOOOOOO...    ..............................    ....OOOOOOO",
"OOOOOOOO...    ..............................    ....OOOOOOO",
"OOOOOOOO.......OOOOOOOOOOOOOOOOOOOOOOOOOOOOOO........OOOOOOO",
"OOOOOOOO.......OOOOOOOOOOOOOOOOOOOOOOOOOOOOOO........OOOOOOO",
"OOOOOOOO.......OOOOOOOOOOOOOOOOOOOOOOOOOOOOOO........OOOOOOO",
"OOOOOOOO.......OOOOOOOOOOOOOOOOOOOOOOOOOOOOOO........OOOOOOO",
"++++++++...OOOOXXXXXXXXXXXXXXXXXXXXXXXXXXXXXXOOOO....+++++++",
"++++++++...OOOOXXXXXXXXXXXXXXXXXXXXXXXXXXXXXXOOOO....+++++++",
"++++++++...OOOOXXXXXXXXXXXXXXXXXXXXXXXXXXXXXXOOOO....+++++++",
"++++++++...OOOOXXXXXXXXXXXXXXXXXXXXXXXXXXXXXXOOOO....+++++++",
"oooooooo...XXXXXXXXXXXXXXXXXXXXXXXXXXXXXXXXXXXXXX....ooooooo",
"oooooooo...XXXXXXXXXXXXXXXXXXXXXXXXXXXXXXXXXXXXXX....ooooooo",
"oooooooo...XXXXXXXXXXXXXXXXXXXXXXXXXXXXXXXXXXXXXX....ooooooo",
"oooooooo...XXXXXXXXXXXXXXXXXXXXXXXXXXXXXXXXXXXXXX....ooooooo",
"oooooooo...XXXXXXXXooooXXXXXXXXXXXXXXXoooXXXXXXXX....ooooooo",
"oooooooo...XXXXXXXXooooXXXXXXXXXXXXXXXoooXXXXXXXX....ooooooo",
"oooooooo...XXXXXXXXooooXXXXXXXXXXXXXXXoooXXXXXXXX....ooooooo",
"XXXXXXXX...XXXXXXXXooooXXXXXXXXXXXXXXXoooXXXXXXXX....XXXXXXX",
"XXXXXXXX...XXXXXXXXooooXXXXXXXXXXXXXXXoooXXXXXXXX....XXXXXXX",
"XXXXXXXX...XXXXXXXXooooXXXXXXXXXXXXXXXoooXXXXXXXX....XXXXXXX",
"XXXXXXXX...XXXXXXXXooooXXXXXXXXXXXXXXXoooXXXXXXXX....XXXXXXX",
"oooooooo...XXXXXXXXooooXXXXXXXXXXXXXXXoooXXXXXXXX....ooooooo",
"oooooooo...XXXXXXXXooooXXXXXXXXXXXXXXXoooXXXXXXXX....ooooooo",
"oooooooo...XXXXXXXXooooXXXXXXXXXXXXXXXoooXXXXXXXX....ooooooo",
"oooooooo...XXXXXXXXooooXXXXXXXXXXXXXXXoooXXXXXXXX....ooooooo",
"oooooooo...XXXXXXXXooooXXXXXXXXXXXXXXXoooXXXXXXXX....ooooooo",
"oooooooo...XXXXXXXXooooXXXXXXXXXXXXXXXoooXXXXXXXX....ooooooo",
"oooooooo...XXXXXXXXooooXXXXXXXXXXXXXXXoooXXXXXXXX....ooooooo",
"oooooooo...XXXXXXXXooooXXXXXXXXXXXXXXXoooXXXXXXXX....ooooooo",
"oooooooo...XXXXXXXXooooXXXXXXXXXXXXXXX@@@@@@@XXXX....ooooooo",
"oooooooo...XXXXXXXXooooXXXXXXXXXXXXXXX@@@@@@@XXXX....ooooooo",
"oooooooo...XXXXXXXXooooXXXXXXXXXXXXXXX@@@@@@@XXXX....ooooooo",
"XXXXXXXX...XXXXXXXXooooXXXXXXXXXXXXXXXoooXXXXXXXX....XXXXXXX",
"XXXXXXXX...XXXXXXXXooooXXXXXXXXXXXXXXXoooXXXXXXXX....XXXXXXX",
"XXXXXXXX...XXXXXXXXooooXXXXXXXXXXXXXXXoooXXXXXXXX....XXXXXXX",
"XXXXXXXX...XXXXXXXXooooXXXXXXXXXXXXXXXoooXXXXXXXX....XXXXXXX",
"oooooooo...XXXXXXXXooooXXXXXXXXXXXXXXXoooXXXXXXXX....ooooooo",
"oooooooo...XXXXXXXXooooXXXXXXXXXXXXXXXoooXXXXXXXX....ooooooo",
"oooooooo...XXXXXXXXooooXXXXXXXXXXXXXXXoooXXXXXXXX....ooooooo",
"oooooooo...XXXXXXXXooooXXXXXXXXXXXXXXXoooXXXXXXXX....ooooooo",
"oooooooo...XXXXXXXXooooXXXXXXXXXXXXXXXoooXXXXXXXX....ooooooo",
"oooooooo...XXXXXXXXooooXXXXXXXXXXXXXXXoooXXXXXXXX....ooooooo",
"oooooooo...XXXXXXXXooooXXXXXXXXXXXXXXXoooXXXXXXXX....ooooooo",
"oooooooo...XXXXXXXXooooXXXXXXXXXXXXXXXoooXXXXXXXX....ooooooo",
"oooooooo...XXXXXXXXXXXXXXXXXXXXXXXXXXXXXXXXXXXXXX....ooooooo",
"oooooooo...XXXXXXXXXXXXXXXXXXXXXXXXXXXXXXXXXXXXXX....ooooooo",
"oooooooo...XXXXXXXXXXXXXXXXXXXXXXXXXXXXXXXXXXXXXX....ooooooo",
"............................................................",
"............................................................",
"............................................................",
"............................................................"
};
