/* XPM */
static char *d43a847922b947c9aac2b6a7a660f1d7HKSRbyOITi0MHMKp[] = {
/* columns rows colors chars-per-pixel */
"60 60 3 1 ",
"  c #393939",
". c #67BF40",
"X c #B0F850",
/* pixels */
"............................................................",
"............................................................",
"..................................................X......X..",
".....XX............................................XX..XX...",
".....XX............................................XX..XX...",
"XX.XX.......................................................",
"XX.XX.......................................................",
"...............  ...........................................",
"...............  ...........................................",
"..........  ...  .... ...................  .....  ..........",
"............  .....  ......................  .  ............",
"............  .....  ......................  .  ............",
"............................................................",
"............................................................",
"............................................................",
"............................................................",
"............................................................",
".. ..........................  .............................",
".. ..........................  .............................",
".. ....  ...............  ...  ...  ........................",
".. ....  ...............  ...  ...  ........................",
".....  ................... ...... ........................XX",
".....................................................XX...XX",
".....................................................XX...XX",
".......................................................XX...",
".......................................................XX...",
"............................................................",
"............................................................",
"............................................................",
"..X...................XX.....XX.............................",
"..X...................XX.....XX.............................",
"XX......................XX.XX...............................",
"XX......................XX.XX...............................",
"............................................................",
"...........................................  ...............",
"...........................................  ...............",
"..........  ......... ................ ....  ...  ..........",
"..........  ......... ................ ....  ...  ..........",
"............  .....  ..................  .....  ............",
"............................................................",
"............................................................",
"............................................................",
"............................................................",
"............................................................",
"............................................................",
"............................................................",
"............................................................",
"............................................................",
"...XX....................................................X..",
"...XX....................................................X..",
"...XX....X..........................  ....................XX",
"XX.....XX......................  ...  ...  ..X.....XX.......",
"XX.....XX......................  ...  ...  ..X.....XX.......",
"................................. .....  .....XX..X.........",
"................................. .....  .....XX..X.........",
"............................................................",
"............................................................",
"............................................................",
"..........................X......X..........................",
"..........................X......X.........................."
};
