/* XPM */
static char *_4e3d201066649c1e73fda419d4e4fe3SC8Ip4y6E8DjlgQ5[] = {
/* columns rows colors chars-per-pixel */
"47 47 18 1 ",
"  c None",
". c black",
"X c gray10",
"o c gray18",
"O c #0A3262",
"+ c #10417C",
"@ c #966B00",
"# c #DE562C",
"$ c #BE8E16",
"% c #DEAB2C",
"& c #003F89",
"* c #00479D",
"= c #0255B7",
"- c #0967D8",
"; c #2275D8",
": c #26A4DE",
"> c #388FF8",
", c #38BBF8",
/* pixels */
"                                               ",
"                                               ",
"              .$$                              ",
"             .%#%%                             ",
"              $%%#%                            ",
"               .#$%.                           ",
" $##%%$         .$%.                           ",
".%$$$%%%.        =%.                           ",
" $%#$$$%%.       =-.                           ",
"       .=%%      =-.                           ",
"         ==.    .=-                            ",
"         .=-.   .--                            ",
"         .=-=   *****.                         ",
"       .=========---&==*                       ",
"      ..=====,==-X..-===*                      ",
"      o.&=,,,=&-XX..-===*.                     ",
"     .X.-====--.XooX---==*.                    ",
"     =---------.XXX-----==*                    ",
"    .=------------------==*.       .O.         ",
"    .----*---------------==*      OOOOO        ",
"    .---------------------==.   .OOOO+OO       ",
"    .=*---------*---------===  .OOOO+++O.      ",
"     *=--------------------==O OOO+++++O.      ",
"      *=--------------===--===.OOO+++++OO      ",
"       .*===----========----===OO++++++OO      ",
"      .OO.********=====------=O.++O++++OO      ",
"      .OOO.===========-------=OO+OO++++OO      ",
"      .OOO===--====-----------==O.O++++OO      ",
"       OO.==------------------==OOO++++O.      ",
"       OO.==-------,,,---------=OOO+++OO.      ",
"       .O.==-----,,,>,,,-------=.OO+++OO       ",
"        ..==----,>>>>>>>>=-----=.O++++O.       ",
"         O==---=,>>>>>>>>;-----=.O+++OO.       ",
"         .==---=;;>>>>>>;;-----=.O+++OO        ",
"          .=---==;;;;;;;;;=----=.O+++O.        ",
"           ==---=.O.O+++++=----=O+++OO         ",
"           .=---==OOOOOOOO.=---=O+++O.         ",
"    OOOOOOOO.,-,==.OOO ....=---.O+OO.          ",
"   .+++++++OO,,,,=OOOOO.   :---.++++++.        ",
"   ++..++++++.,,,:.OOO.    :,,-OO+++++++++.    ",
"   .%+++..   .:,,:....     :,,,.OOO++++++++.   ",
"   @.+    ..::,,,:.        :,,,    ..O++++.++  ",
"         ..,,,:,::         .,,,,::..  .++.+.%. ",
"         .,::.,,:           :,:,,:..   .+%.+@  ",
"        .:.%%%,:            .,::,,@     .@ .   ",
"            @%:               :%@..            ",
"              .                                "
};
