/* XPM */
static char *f5c447f048cc46d5b37baab388fd6ee12VH5CoYwgacflYCd[] = {
/* columns rows colors chars-per-pixel */
"47 47 5 1 ",
"  c None",
". c #2E222F",
"X c #5E4C6D",
"o c #9B66CC",
"O c #DACEE5",
/* pixels */
"                                               ",
"            .X..                               ",
"          ..XX..                               ",
"          ..XXXX.                              ",
"          ..XXXXX.                             ",
"          ..XXXXX.                             ",
"          ..XXXXXX...                          ",
"          ..XXXXXXXXX......                    ",
"        ....XXXXXXXXXXXXXXX......              ",
"        .X..XXXXXXXXXXXXXXXXXXXXX....          ",
"        .XXX.XXXXXXXXXXXXXXXXXXXXXXXX..        ",
"        .XXXXXXXXXXXXXXXXXXXXXXXXXXXXX..       ",
"         .XXXXXXXXXXXXXXXXXXXXXXXXXXXXX.       ",
"         .XXXXXXXXXXXXXXXXXXXXXXXXXXXXXX..     ",
"         .XXXXXXXXXXXXXXXXXXXXXXXXXXXXXX..     ",
"          ..XXXXXXXXXXXXXXXXXXXXXXXXXXXX..     ",
"        ..XXXXXXXXXXXXXXXXXXXXXXXXXXXXXX..     ",
"        .XXXXXXXXXXXXXXXXXXXXXXXXXXXXXXX..     ",
"         .XXXXXXXXXXXXXXXXX......XXXXXX...     ",
"          ...XXXXXXXXXXXX..XXXX...XXXX.ooo.    ",
"             ...XXXXXXXXXXXXXXXXXX.XXooOoo.    ",
"          ... ...XXXXXXXXXXXXXXXXXXXXoOOOOo.   ",
"         .oo.    .XXXXXXXXXXXXXXXXXooooOOOoo.. ",
"        .oooo.   .XXXXXXXXXXXXXXXXXooooooooooo.",
"   ..  .ooooo.  ....XXXXXXXXXXXXXXXooooooooOoo.",
" ..o.  .ooooo.........XXXXXXXXXXXXXXXooooooooo.",
".oooo..XXoooX....XXXXX....XXXXXXXXXXX.....oooo.",
".oooo..XXoooXX..XXXXXXXXXXXXXXXXX......   .o.. ",
".ooooooXXXooXXXX.XXXXXXXXXXXXXoOOoooo...   ... ",
".XXooooXXXoooXXXXXXXXXXXXXXXXOOOOOoooo..       ",
".XXooXXXXXXXoXXXXXXXXXXXXXXOOOOOOOOoooo.       ",
".XXXoXXXXXXXXXooXXXXXXXXXXOOOOOOOOOOOoo.       ",
".XXXoooXXXXXXXXXXXXXXXXXXXOOOOOOOOOOOoo.       ",
".XXXoooXXXXXXXXXXXXXXXXXXXOOOOOOOOOOOoo.       ",
".XXXXooXXXXXXXXXXXXXXXXXXoOOOOOOOOOOOoo.       ",
" ..XXXXXXXXXXXXXXXXXXXXXXoOOOOOOOOOOOOo.       ",
" ..XXXXXXXXXXXXXXXXXXXXXoOOOOOOOOOOOOO.        ",
" ..XXXXXXXXXXXXXXXXXXXooOOOOOOOOOOOOOO.        ",
"   .XXXXXXXXXXXXXXXXXOOOOOOOOOOOOOOOOO.        ",
"   .XXXXXXXXXXXXXXXXOOOOOOOOOOOOOOOOOo.        ",
"    .XXXXXXXXXXXXXXXOOOOOOOOOOOOOOOoo.         ",
"     ..XXXXXXXXXXXXXoOOOOOOOOOOOOOO..          ",
"     ..XXXXXXXXXXXXXoOOOOOOOOOOOOOO..          ",
"       ..XXXXXXXXXXXXOOOOOOOOOOOOo.            ",
"         ....XXXXXXXXXooOOOOOOo...             ",
"             ....XXXXXXX.......                ",
"                 .......                       "
};
