/* XPM */
static char *afb883c209ef435eca66adbb64fef2c6wKQfza7mL8knHaYM[] = {
/* columns rows colors chars-per-pixel */
"30 30 4 1 ",
"  c None",
". c black",
"X c red",
"o c white",
/* pixels */
"                              ",
"                              ",
"                              ",
"          ..........          ",
"          ..........          ",
"          ..........          ",
"       ...XXXXXXXXXX...       ",
"       ...XXXXXXXXXX...       ",
"     ..XXXXXXXXXXXXXXXX..     ",
"     ..XXXXXXXXXXXXXXXX..     ",
"     ..XXXXXXXXXXXXXXXX..     ",
"  ...XXXXXXXXXXXXXXXXXXXX...  ",
"  ...XXXXXXXXXXXXXXXXXXXX...  ",
"  ...XXXXXXXXXXXXXXXXXXXX...  ",
"  ...XXXXXXXX....XXXXXXXX...  ",
"  ...XXXXXXXX....XXXXXXXX...  ",
"  .....XXX...oooo...XXX.....  ",
"  .....XXX...oooo...XXX.....  ",
"  .....XXX...oooo...XXX.....  ",
"  ...oo......oooo......oo...  ",
"  ...oo......oooo......oo...  ",
"  .....oooooo....oooooo.....  ",
"     ..oooooo....oooooo.....  ",
"     ..oooooooooooooooo..     ",
"     ..oooooooooooooooo..     ",
"       ...oooooooooo...       ",
"       ...oooooooooo...       ",
"          ..........          ",
"          ..........          ",
"                              "
};
